<?xml version="1.0" standalone="no"?>
<!DOCTYPE svg PUBLIC "-//W3C//DTD SVG 20010904//EN"
 "http://www.w3.org/TR/2001/REC-SVG-20010904/DTD/svg10.dtd">
<svg version="1.0" xmlns="http://www.w3.org/2000/svg"
 width="512.000000pt" height="512.000000pt" viewBox="0 0 512.000000 512.000000"
 preserveAspectRatio="xMidYMid meet">
<metadata>
Created by potrace 1.16, written by Peter Selinger 2001-2019
</metadata>
<g transform="translate(0.000000,512.000000) scale(0.100000,-0.100000)"
fill="#000000" stroke="none">
<path d="M1195 4025 c-49 -17 -90 -62 -104 -112 -15 -54 -15 -2653 0 -2708 14
-50 64 -100 114 -114 27 -7 266 -11 753 -11 l712 0 0 575 0 575 -195 0 -195 0
0 220 0 220 195 0 195 0 0 213 c0 145 5 233 15 279 42 202 183 350 382 403 62
17 280 22 426 9 l77 -7 0 -192 0 -193 -162 -4 c-152 -3 -166 -5 -207 -28 -76
-43 -85 -73 -89 -292 l-4 -188 221 0 c122 0 221 -3 221 -7 0 -5 -12 -104 -27
-220 l-27 -213 -193 0 -193 0 0 -575 0 -575 383 0 c246 0 396 4 422 11 50 14
100 64 114 114 15 56 15 2654 0 2710 -14 50 -64 100 -114 114 -28 8 -431 11
-1360 11 -1112 -1 -1326 -3 -1360 -15z"/>
</g>
</svg>
