<?xml version="1.0" standalone="no"?>
<!DOCTYPE svg PUBLIC "-//W3C//DTD SVG 20010904//EN"
 "http://www.w3.org/TR/2001/REC-SVG-20010904/DTD/svg10.dtd">
<svg version="1.0" xmlns="http://www.w3.org/2000/svg"
 width="512.000000pt" height="512.000000pt" viewBox="0 0 512.000000 512.000000"
 preserveAspectRatio="xMidYMid meet">
<metadata>
Created by potrace 1.16, written by Peter Selinger 2001-2019
</metadata>
<g transform="translate(0.000000,512.000000) scale(0.100000,-0.100000)"
fill="#000000" stroke="none">
<path d="M1565 4460 c-445 -91 -772 -400 -897 -847 -22 -77 -22 -88 -25 -1007
-4 -1013 -5 -999 54 -1173 111 -335 390 -613 723 -722 174 -57 136 -54 1065
-58 549 -3 894 0 955 6 538 59 958 477 1021 1016 7 58 9 399 7 970 -4 853 -5
883 -25 965 -103 416 -393 714 -814 837 l-94 27 -940 3 c-879 2 -946 0 -1030
-17z m1960 -383 c275 -86 466 -277 552 -552 l28 -90 0 -870 c0 -992 3 -947
-86 -1123 -99 -198 -259 -336 -474 -410 l-80 -27 -880 -3 c-786 -2 -888 -1
-955 14 -148 32 -277 101 -388 208 -112 107 -186 238 -223 392 -19 80 -20 116
-17 966 l3 883 27 80 c103 298 351 510 648 554 38 5 423 8 910 7 l845 -1 90
-28z"/>
<path d="M3465 3756 c-59 -27 -77 -46 -104 -106 -42 -92 -23 -192 49 -262 39
-37 59 -48 103 -58 178 -37 314 99 277 277 -10 44 -21 64 -58 103 -72 74 -172
91 -267 46z"/>
<path d="M2397 3480 c-407 -74 -724 -406 -778 -815 -60 -461 238 -905 696
-1037 69 -20 103 -23 245 -23 126 0 180 4 228 17 403 112 690 456 718 862 26
372 -184 739 -518 907 -134 68 -231 91 -398 95 -80 1 -167 -1 -193 -6z m324
-356 c206 -60 372 -232 424 -439 81 -320 -136 -661 -466 -731 -136 -29 -287
-4 -419 69 -30 17 -87 63 -126 102 -115 115 -174 259 -174 420 0 297 224 553
525 599 51 7 179 -3 236 -20z"/>
</g>
</svg>
